<svg xmlns="http://www.w3.org/2000/svg" width="97.75" height="97.75" style="enable-background:new 0 0 97.75 97.75" xml:space="preserve"><path d="M72.337 47.891c-1.588.21-2.897.996-4.133 1.942-1.376 1.056-2.53 2.344-3.718 3.595-.16.168-.09.256.027.387.836.936 1.697 1.845 2.676 2.631 1.623 1.308 3.381 2.313 5.522 2.512 2.412.225 4.365-.905 5.229-3.09.299-.756.424-1.547.428-2.471.01-.23-.029-.57-.071-.91-.38-3.034-2.934-4.996-5.96-4.596zM52.206 49.757c-1.028-.741-2.11-1.401-3.356-1.711-1.896-.469-3.621-.2-4.969 1.343-1.046 1.197-1.545 2.614-1.543 4.303.012.151.025.401.047.65.205 2.35 1.773 4.114 4.047 4.529 1.249.229 2.463.062 3.642-.396 2.515-.979 4.433-2.742 6.185-4.723.128-.146.064-.217-.036-.322-1.255-1.315-2.535-2.606-4.017-3.673z"/><path d="M48.875 0C21.883 0 0 21.882 0 48.875S21.883 97.75 48.875 97.75 97.75 75.868 97.75 48.875 75.867 0 48.875 0zm24.121 65.65c-3.092-.036-5.729-1.234-8.137-3.06-1.571-1.192-2.918-2.624-4.215-4.101-.218-.248-.318-.303-.582-.028-1.324 1.375-2.582 2.819-4.07 4.03-1.881 1.531-3.957 2.682-6.389 3.012-4.3.584-8.014-.549-10.9-3.922-.654-.766-1.147-1.637-1.552-2.559-.052-.115-.066-.256-.198-.354-.566 1.223-1.268 2.348-2.188 3.325-2.317 2.464-5.176 3.749-8.549 3.868-2.438.086-4.826-.225-7.05-1.279-3.725-1.766-5.773-4.705-6.027-8.854-.02-.316.068-.396.382-.395 2.003.014 4.007.014 6.01 0 .301-.002.385.086.436.38.386 2.287 1.615 3.878 3.919 4.45 3.215.797 6.168-1.025 7.013-4.335.568-2.228.323-4.356-1.154-6.211-.979-1.231-2.311-1.831-3.874-1.941-2.249-.158-4.089.583-5.417 2.45-.123.176-.268.219-.467.217-1.806-.005-3.611-.01-5.417.004-.313.002-.378-.086-.324-.385.937-5.209 1.866-10.42 2.796-15.631.127-.713.258-1.426.374-2.14.038-.234.128-.321.381-.32 5.997.008 11.993.008 17.99 0 .286-.001.349.093.347.361-.013 1.607-.016 3.216.002 4.823.002.328-.081.417-.414.416-4.296-.011-8.592-.003-12.889-.015-.356-.001-.515.058-.582.459-.377 2.286-.795 4.566-1.195 6.849-.018.097-.086.229.02.292.116.071.182-.069.25-.136 1.969-1.896 4.37-2.475 7.019-2.333 2.548.136 4.723 1.092 6.517 2.904.749.756 1.331 1.63 1.801 2.582l.194.389c.507-1.337 1.133-2.503 2.021-3.513 1.947-2.214 4.408-3.408 7.333-3.678 4.122-.381 7.51 1.211 10.475 3.917 1.229 1.121 2.317 2.377 3.385 3.649.229.271.328.295.568.01 1.375-1.634 2.745-3.274 4.438-4.603 1.952-1.53 4.103-2.635 6.596-2.927 6.165-.722 11.317 2.635 12.63 8.999.551 2.677.383 5.324-.546 7.902-1.718 4.771-5.689 7.492-10.761 7.432z"/></svg>