<svg viewBox="0 0 145 145" xml:space="preserve" xmlns="http://www.w3.org/2000/svg"><circle cx="72.1" cy="73.6" fill="#C1A8B2" r="50"/><path d="M64 96.1h-5.3c-3.6 0-6.5-2.1-6.5-7.4V80c0-3.1-4.2-3.5-5.4-3.5v-5.8c1.3 0 5.4-.4 5.4-3.5v-8.8c0-5.3 2.8-7.3 6.5-7.3H64v5.8h-2.5c-3.1 0-3.3 1.9-3.3 3.2v8.2c0 4.7-2.9 5.1-5 5.3v.1c2.1.2 5 .5 5 5.2v8.2c0 1.4.2 3.2 3.3 3.2H64v5.8zM80.3 51.2h5.4c3.4 0 6.3 2.1 6.3 7.4v8.7c0 3.1 4 3.5 5.4 3.5v5.8c-1.4 0-5.4.4-5.4 3.5v8.8c0 5.3-2.8 7.3-6.5 7.3h-5.3v-5.8h2.5c3.1 0 3.3-1.9 3.3-3.2V79c0-4.7 2.9-5.1 5-5.3v-.1c-2.1-.2-5-.5-5-5.2v-8.2c0-1.4-.2-3.2-3.3-3.2h-2.5v-5.8z" fill="#FFF"/><path d="M64 96.1h-5.3c-3.6 0-6.5-2.1-6.5-7.4V80c0-3.1-4.2-3.5-5.4-3.5v-5.8c1.3 0 5.4-.4 5.4-3.5v-8.8c0-5.3 2.8-7.3 6.5-7.3H64v5.8h-2.5c-3.1 0-3.3 1.9-3.3 3.2v8.2c0 4.7-2.9 5.1-5 5.3v.1c2.1.2 5 .5 5 5.2v8.2c0 1.4.2 3.2 3.3 3.2H64v5.8z" fill="#FFF"/><path d="M80.3 51.2h5.4c3.4 0 6.3 2.1 6.3 7.4v8.7c0 3.1 4 3.5 5.4 3.5v5.8c-1.4 0-5.4.4-5.4 3.5v8.8c0 5.3-2.8 7.3-6.5 7.3h-5.3v-5.8h2.5c3.1 0 3.3-1.9 3.3-3.2V79c0-4.7 2.9-5.1 5-5.3v-.1c-2.1-.2-5-.5-5-5.2v-8.2c0-1.4-.2-3.2-3.3-3.2h-2.5v-5.8z" fill="#505D73"/></svg>