<svg data-name="Layer 1" viewBox="0 0 402.51 450.31" xmlns="http://www.w3.org/2000/svg"><path d="m55.85 312.62 63.33-73.34c3.45-17.5 34.51-162.93 163.12-218.7C328.96.35 372.92-1.34 402.51.58a502.39 502.39 0 0 0-18.66 53.37c-7.9 27.49-9.55 42.26-19.34 67.33a285.84 285.84 0 0 1-16.66 35.34 179.89 179.89 0 0 0-82-12.67l54.66 38a388.48 388.48 0 0 1-79.33 43.33 389 389 0 0 1-104 26l-36 50Z"/><path d="M637.33 375.33c24.22-40.5 64.27-95.36 127.67-144A502.81 502.81 0 0 1 843.33 182 1340.725 1340.725 0 0 0 751 258.67a1344.16 1344.16 0 0 0-113.67 116.66Z" transform="translate(-481.82 -160.05)" style="fill:#fff"/><path d="M39.85 364.62a26 26 0 0 1 9.33-13.34c6-4.29 12.23-4.18 22-4 10.53.2 19.18.36 26 6.67a25 25 0 0 1 6.67 10.67c7.67-.86 22.9-1.36 30.66 8 2.76 3.32 4 7.15 6 26 1.25 11.49 2 21.08 2.46 27.91a16.21 16.21 0 0 1-.45 12.62c-3.07 6.22-10.69 7.94-14.07 8.74-22.37 5.31-103 .27-107.95-.05A20.1 20.1 0 0 1 0 431.47a272.26 272.26 0 0 1 4.51-38.19c2.82-14.72 5-19.17 8.67-22.66 8.39-8.01 21.43-6.79 26.67-6Z"/></svg>